<svg width="600" height="600" viewBox="0 0 600 600" fill="none" xmlns="http://www.w3.org/2000/svg">
<path d="M589.274 326.196C589.351 325.981 589.422 325.765 589.478 325.544C589.509 325.418 589.534 325.292 589.559 325.165C589.599 324.957 589.629 324.748 589.65 324.537C589.662 324.41 589.675 324.283 589.68 324.156C589.689 323.935 589.683 323.714 589.671 323.492C589.665 323.377 589.665 323.262 589.652 323.147C589.625 322.884 589.576 322.621 589.517 322.36C589.502 322.29 589.495 322.218 589.477 322.149C589.475 322.141 589.474 322.132 589.472 322.124C589.388 321.803 589.279 321.494 589.153 321.194C589.117 321.108 589.069 321.028 589.03 320.944C588.924 320.719 588.811 320.498 588.682 320.287C588.621 320.187 588.553 320.091 588.486 319.994C588.354 319.801 588.215 319.616 588.065 319.438C588.024 319.389 587.992 319.333 587.949 319.285L304.973 2.29491C304.966 2.28696 304.958 2.28142 304.951 2.27348C304.893 2.21031 304.831 2.15364 304.772 2.0928C304.691 2.00961 304.604 1.93245 304.519 1.85287C304.389 1.73174 304.259 1.61009 304.121 1.49966C304.036 1.43193 303.946 1.37387 303.859 1.31062C303.803 1.27071 303.759 1.22076 303.702 1.18224C303.669 1.15933 303.631 1.14645 303.597 1.12425C303.464 1.03716 303.325 0.959656 303.186 0.881989C303.069 0.816757 302.953 0.753326 302.832 0.695358C302.761 0.660889 302.695 0.617859 302.622 0.5858C302.549 0.553665 302.474 0.534912 302.4 0.505447C302.303 0.466217 302.203 0.432175 302.103 0.397446C302.002 0.362274 301.905 0.318481 301.802 0.288147C301.728 0.266113 301.652 0.250824 301.577 0.231216C301.434 0.19397 301.291 0.167358 301.147 0.13945C301.016 0.114227 300.888 0.0816497 300.755 0.0639343C300.656 0.0507202 300.558 0.0502929 300.459 0.0413818C300.313 0.0282592 300.168 0.016159 300.022 0.0123596C299.963 0.010803 299.905 0 299.846 0C299.782 0 299.721 0.0114899 299.658 0.0132141C299.52 0.0168457 299.383 0.0277405 299.244 0.0397491C299.136 0.0492553 299.028 0.0505372 298.92 0.0651398C298.793 0.082428 298.67 0.115341 298.545 0.139542C298.397 0.167969 298.25 0.195358 298.103 0.233719C298.037 0.251083 297.969 0.263611 297.904 0.282959C297.771 0.322021 297.644 0.377747 297.513 0.424835C297.457 0.445145 297.401 0.464066 297.345 0.48584C297.23 0.530853 297.114 0.568954 297.001 0.620453C296.962 0.638336 296.926 0.662186 296.887 0.680847C296.742 0.749786 296.602 0.825653 296.462 0.905136C296.346 0.970886 296.23 1.03517 296.118 1.1075C296.074 1.13583 296.026 1.15277 295.982 1.18224C295.926 1.22076 295.881 1.27052 295.826 1.31046C295.73 1.37991 295.634 1.44661 295.541 1.52153C295.428 1.61182 295.325 1.71222 295.218 1.80959C295.104 1.91379 294.99 2.01627 294.884 2.12685C294.844 2.16832 294.801 2.20496 294.762 2.24747C294.746 2.26492 294.727 2.27728 294.711 2.29491L11.7354 319.285C11.6924 319.333 11.6613 319.388 11.6198 319.438C11.4695 319.616 11.3298 319.802 11.1978 319.995C11.1318 320.092 11.0634 320.187 11.0026 320.286C10.8735 320.497 10.7606 320.719 10.6545 320.944C10.6151 321.028 10.5678 321.109 10.5319 321.194C10.4052 321.494 10.2962 321.803 10.2122 322.124C10.2101 322.132 10.2096 322.141 10.2075 322.149C10.1897 322.218 10.1831 322.289 10.1674 322.359C10.1085 322.621 10.0597 322.884 10.0321 323.148C10.02 323.262 10.0197 323.376 10.0134 323.491C10.0013 323.713 9.99513 323.935 10.0046 324.156C10.01 324.283 10.0223 324.409 10.0349 324.537C10.0556 324.749 10.0857 324.958 10.1261 325.166C10.1503 325.293 10.1753 325.418 10.2068 325.543C10.2626 325.765 10.3333 325.981 10.4109 326.196C10.4484 326.3 10.4793 326.404 10.5218 326.507C10.653 326.822 10.8031 327.129 10.9808 327.423C10.9829 327.426 10.9839 327.43 10.9858 327.433C11.0821 327.592 11.194 327.735 11.3012 327.883C11.3692 327.978 11.428 328.078 11.5011 328.169C11.6931 328.408 11.8994 328.632 12.1182 328.841C12.1206 328.844 12.1225 328.846 12.1251 328.849L295.101 598.105C295.141 598.143 295.189 598.169 295.23 598.206C295.475 598.428 295.736 598.632 296.013 598.819C296.072 598.858 296.126 598.906 296.186 598.943C296.485 599.131 296.799 599.3 297.131 599.443C297.16 599.455 297.19 599.458 297.218 599.47C297.511 599.591 297.815 599.673 298.12 599.752C298.252 599.786 298.38 599.84 298.513 599.866C298.935 599.949 299.364 599.992 299.795 599.995C299.81 599.995 299.826 600 299.841 600L299.842 600L299.844 600C299.859 600 299.874 599.995 299.89 599.995C300.321 599.992 300.75 599.949 301.171 599.866C301.305 599.84 301.434 599.786 301.567 599.751C301.871 599.672 302.174 599.591 302.466 599.47C302.495 599.458 302.525 599.455 302.553 599.443C302.885 599.3 303.199 599.131 303.499 598.943C303.559 598.906 303.613 598.858 303.672 598.818C303.949 598.632 304.21 598.428 304.454 598.206C304.496 598.169 304.544 598.143 304.584 598.105L587.559 328.849C587.562 328.846 587.564 328.844 587.566 328.841C587.785 328.632 587.991 328.408 588.183 328.169C588.257 328.078 588.315 327.978 588.383 327.883C588.491 327.735 588.602 327.592 588.699 327.433C588.701 327.43 588.702 327.426 588.704 327.423C588.881 327.129 589.032 326.822 589.163 326.507C589.205 326.404 589.236 326.3 589.274 326.196ZM430.381 283.892L299.842 334.776L169.308 283.894L299.845 22.2861L430.381 283.892ZM444.651 281.674L328.963 49.8252L562.7 311.659L444.651 281.674ZM155.036 281.674L36.9841 311.659L270.727 49.819L155.036 281.674ZM159.337 294.775L292.964 346.862V577.082L30.6298 327.466L159.337 294.775ZM306.721 577.082V346.864L440.352 294.776L569.055 327.466L306.721 577.082Z" fill="white"/>
</svg>
