<svg width="600" height="600" viewBox="0 0 600 600" fill="none" xmlns="http://www.w3.org/2000/svg">
<path d="M571.111 138.878C571.103 138.837 571.111 138.797 571.103 138.748C571.103 138.723 571.103 138.691 571.095 138.658V138.61C571.087 138.504 571.079 138.398 571.062 138.293C571.054 138.228 571.046 138.163 571.038 138.098C571.03 138.049 571.022 138.008 571.014 137.96C570.997 137.878 570.981 137.805 570.965 137.724C570.948 137.635 570.924 137.545 570.908 137.456C570.892 137.407 570.884 137.366 570.867 137.318C570.851 137.261 570.835 137.212 570.819 137.155C570.786 137.041 570.745 136.928 570.705 136.822C570.705 136.822 570.705 136.822 570.705 136.814C570.689 136.773 570.681 136.733 570.664 136.692C570.656 136.659 570.64 136.627 570.624 136.594C570.583 136.489 570.534 136.383 570.486 136.278C570.453 136.221 570.429 136.156 570.396 136.099C570.396 136.083 570.388 136.074 570.388 136.066C570.38 136.058 570.372 136.042 570.364 136.026C570.315 135.936 570.266 135.855 570.217 135.774C570.169 135.693 570.128 135.611 570.079 135.53C570.022 135.449 569.966 135.367 569.909 135.286C569.852 135.205 569.795 135.124 569.738 135.042C569.705 135.01 569.681 134.977 569.657 134.937C569.616 134.896 569.576 134.847 569.535 134.807C569.478 134.734 569.421 134.661 569.356 134.587C569.315 134.547 569.267 134.498 569.226 134.457L569.088 134.319C569.039 134.27 568.99 134.222 568.934 134.173C568.868 134.116 568.803 134.059 568.739 134.002C568.69 133.962 568.641 133.921 568.584 133.88C568.552 133.848 568.519 133.824 568.487 133.791C568.389 133.718 568.283 133.653 568.178 133.58C568.137 133.555 568.097 133.523 568.048 133.49C567.853 133.369 567.65 133.255 567.447 133.149C567.438 133.141 567.438 133.141 567.43 133.141L302.538 0.690689C302.497 0.674469 302.457 0.658157 302.416 0.641922C302.286 0.576858 302.148 0.528107 302.01 0.471268C301.888 0.422516 301.758 0.365692 301.628 0.324997C301.49 0.276245 301.352 0.24379 301.213 0.211258C301.075 0.178726 300.945 0.138123 300.807 0.113739C300.669 0.0893555 300.53 0.0730438 300.392 0.0569153C300.254 0.0324402 300.116 0.0162201 299.97 0.00814819C299.832 -6.51926e-09 299.702 0 299.564 0C299.417 0 299.279 -6.51926e-09 299.133 0.00814819C298.995 0.0162201 298.865 0.0324402 298.727 0.0487518C298.58 0.0730438 298.442 0.0893554 298.304 0.113739C298.166 0.138123 298.036 0.178726 297.898 0.211258C297.76 0.24379 297.622 0.276245 297.483 0.324997C297.353 0.365692 297.224 0.422516 297.102 0.471268C296.964 0.528107 296.826 0.576858 296.695 0.641922C296.655 0.658157 296.614 0.674469 296.574 0.690689L31.681 133.141C31.6727 133.141 31.6727 133.141 31.6647 133.149C31.4533 133.255 31.2583 133.369 31.0633 133.49C31.0147 133.523 30.9737 133.555 30.9331 133.58C30.8276 133.653 30.7218 133.718 30.6246 133.791C30.592 133.824 30.5594 133.848 30.5271 133.88C30.4702 133.921 30.4213 133.962 30.3727 134.002C30.3074 134.059 30.2346 134.116 30.1776 134.173C30.1207 134.222 30.0721 134.27 30.0232 134.319C29.9743 134.36 29.934 134.409 29.8851 134.457C29.8445 134.498 29.7956 134.547 29.755 134.587C29.6901 134.661 29.6331 134.734 29.5683 134.807C29.5356 134.847 29.495 134.896 29.4544 134.937C29.4301 134.977 29.4055 135.01 29.3732 135.042C29.3163 135.124 29.2594 135.205 29.2025 135.286C29.1456 135.367 29.0887 135.449 29.0317 135.53C28.9832 135.611 28.9426 135.693 28.8936 135.774C28.845 135.855 28.7961 135.944 28.7475 136.026C28.7392 136.042 28.7312 136.058 28.7229 136.066C28.7229 136.074 28.7149 136.083 28.7149 136.091C28.6826 136.156 28.658 136.221 28.6257 136.278C28.5768 136.383 28.5282 136.489 28.4876 136.594C28.4713 136.627 28.455 136.659 28.4466 136.7C28.4307 136.733 28.4223 136.773 28.406 136.814V136.822C28.3654 136.928 28.3248 137.041 28.2926 137.155C28.2762 137.212 28.2516 137.261 28.2436 137.318C28.2273 137.366 28.2193 137.407 28.203 137.456C28.1867 137.545 28.1624 137.635 28.1461 137.724C28.1218 137.805 28.1135 137.886 28.0975 137.96C28.0892 138.008 28.0812 138.049 28.0732 138.098C28.0649 138.163 28.0566 138.228 28.0486 138.301C28.0323 138.398 28.0243 138.504 28.0163 138.61C28.0163 138.626 28.0163 138.65 28.008 138.675V138.748C28 138.797 28 138.837 28 138.886V139.373L40.4485 443.384C40.4485 443.424 40.4568 443.457 40.4568 443.505C40.4648 443.554 40.4568 443.595 40.4648 443.652C40.4728 443.798 40.5054 443.944 40.5217 444.09C40.538 444.188 40.546 444.286 40.5623 444.375C40.6192 444.659 40.6925 444.944 40.7816 445.212C40.79 445.244 40.8059 445.269 40.8143 445.301C40.9038 445.545 41.001 445.781 41.1068 446.008C41.1554 446.098 41.2043 446.179 41.2529 446.268C41.3425 446.439 41.432 446.601 41.5375 446.756C41.5944 446.845 41.6593 446.934 41.7242 447.032C41.83 447.17 41.9435 447.308 42.0573 447.446C42.1306 447.536 42.2038 447.617 42.285 447.698C42.4068 447.828 42.537 447.95 42.6751 448.072C42.7563 448.145 42.8375 448.218 42.927 448.292C43.0731 448.413 43.2359 448.527 43.3983 448.633C43.4795 448.69 43.5527 448.747 43.6339 448.795C43.6582 448.812 43.6745 448.828 43.6988 448.836L296.004 598.976C296.037 598.992 296.07 599.017 296.094 599.033L296.143 599.057C296.167 599.074 296.184 599.082 296.199 599.09C296.427 599.22 296.655 599.334 296.89 599.439C296.947 599.464 297.004 599.488 297.061 599.512C297.272 599.594 297.483 599.667 297.703 599.732C297.76 599.748 297.825 599.764 297.882 599.781C298.117 599.846 298.361 599.894 298.597 599.927C298.637 599.935 298.67 599.935 298.702 599.943C298.979 599.976 299.271 600 299.556 600C300.027 600 300.482 599.951 300.937 599.854C300.937 599.854 300.945 599.854 300.953 599.854C301.148 599.813 301.335 599.756 301.522 599.699C301.563 599.683 301.603 599.675 301.652 599.659C301.814 599.602 301.985 599.537 302.148 599.472C302.205 599.447 302.261 599.423 302.326 599.399C302.473 599.326 302.619 599.244 302.773 599.163C302.838 599.13 302.903 599.098 302.968 599.057C303.107 598.976 303.237 598.887 303.375 598.789C303.44 598.74 303.505 598.7 303.57 598.651C303.7 598.554 303.822 598.448 303.952 598.334C304.008 598.285 304.065 598.237 304.122 598.18C304.244 598.066 304.366 597.944 304.48 597.822C304.512 597.782 304.553 597.741 304.594 597.7C304.61 597.676 304.626 597.652 304.642 597.635C304.675 597.595 304.715 597.562 304.748 597.522L304.756 597.505L553.21 449.657C553.714 449.567 554.21 449.421 554.697 449.21C556.785 448.283 558.232 446.366 558.581 444.139C558.662 443.798 558.736 443.448 558.76 443.091C558.793 442.66 558.776 442.23 558.728 441.807L571.111 139.373V138.878ZM306.219 17.4379L502.448 115.557L309.68 63.8118L306.219 62.8774V17.4379ZM555.591 143.623L505.837 274.367L472.611 361.671L332.944 113.696L313.15 78.5438L555.591 143.623ZM299.556 81.5828L462.38 370.666H136.731L299.556 81.5828ZM292.892 17.4379V62.8774L96.6626 115.557L292.892 17.4379ZM285.961 78.5438L126.501 361.671L58.5773 183.196L43.5201 143.623L285.961 78.5438ZM42.9999 179.75L81.8657 281.875L117.408 375.281L95.5413 393.67L53.2142 429.261L42.9999 179.75ZM58.5773 442.173L124.412 386.812L271.042 568.61L58.5773 442.173ZM299.385 582.505L143.476 389.217L139.266 384H459.504L299.385 582.505ZM328.825 567.667L474.699 386.812L540.193 441.888L328.825 567.667ZM545.921 428.635L481.89 374.786L556.111 179.75L545.921 428.635Z" fill="white"/>
</svg>
