<svg width="600" height="600" viewBox="0 0 600 600" fill="none" xmlns="http://www.w3.org/2000/svg">
<path d="M594.822 417.554L305.199 2.94618C305.184 2.92491 305.165 2.90808 305.15 2.88698C305.027 2.71433 304.884 2.55747 304.746 2.39671C304.645 2.27995 304.551 2.15512 304.444 2.04619C304.307 1.90799 304.153 1.78793 304.005 1.66138C303.877 1.55217 303.756 1.43411 303.621 1.33507C303.478 1.23004 303.32 1.14427 303.169 1.0501C303.012 0.952775 302.86 0.847398 302.696 0.7632C302.553 0.689332 302.398 0.634812 302.248 0.570573C302.061 0.49019 301.876 0.404344 301.682 0.340974C301.657 0.332643 301.634 0.319093 301.608 0.311021C301.478 0.270051 301.345 0.254167 301.214 0.221269C301.014 0.171098 300.817 0.116761 300.613 0.0844584C300.447 0.0582438 300.282 0.0515605 300.115 0.0375071C299.919 0.0207529 299.725 -0.000166896 299.527 1.00421e-06C299.354 0.000260404 299.183 0.0197916 299.012 0.0329905C298.822 0.0473948 298.632 0.0561686 298.442 0.0867167C298.259 0.116151 298.081 0.16623 297.901 0.21016C297.754 0.246003 297.606 0.265016 297.459 0.311021C297.431 0.319886 297.407 0.33455 297.379 0.343659C297.201 0.402253 297.031 0.482209 296.858 0.555131C296.693 0.624391 296.524 0.684815 296.367 0.765809C296.216 0.843934 296.075 0.942277 295.929 1.03169C295.766 1.13194 295.598 1.22449 295.444 1.33716C295.316 1.43169 295.2 1.54445 295.078 1.64827C294.924 1.77908 294.765 1.90399 294.623 2.04723C294.517 2.15444 294.426 2.27734 294.326 2.3922C294.186 2.55435 294.042 2.71285 293.917 2.88707C293.902 2.90808 293.883 2.92491 293.869 2.94618L4.24529 417.554C3.14432 419.13 2.74971 421.093 3.15639 422.972C3.5629 424.852 4.73418 426.476 6.38843 427.457L296.011 599.035C296.029 599.046 296.049 599.053 296.067 599.063C296.083 599.073 296.096 599.084 296.112 599.093C296.244 599.169 296.383 599.225 296.518 599.291C296.642 599.351 296.763 599.419 296.89 599.471C297.061 599.542 297.236 599.594 297.411 599.651C297.524 599.688 297.635 599.733 297.75 599.764C297.95 599.818 298.154 599.851 298.358 599.886C298.451 599.903 298.542 599.928 298.635 599.94C298.934 599.979 299.234 600 299.534 600C299.834 600 300.134 599.979 300.432 599.94C300.526 599.928 300.618 599.902 300.711 599.886C300.914 599.851 301.118 599.817 301.318 599.764C301.433 599.733 301.544 599.688 301.657 599.651C301.832 599.594 302.007 599.542 302.178 599.471C302.305 599.419 302.426 599.351 302.55 599.29C302.685 599.225 302.824 599.168 302.955 599.093C302.971 599.084 302.985 599.073 303.001 599.063C303.019 599.053 303.038 599.046 303.056 599.035L592.679 427.457C594.334 426.476 595.505 424.852 595.911 422.972C596.318 421.093 595.923 419.13 594.822 417.554ZM292.623 28.8635V580.963L19.8416 419.361L292.623 28.8635ZM306.445 580.963V28.8635L579.226 419.361L306.445 580.963Z" fill="white"/>
</svg>
