<svg width="600" height="600" viewBox="0 0 600 600" fill="none" xmlns="http://www.w3.org/2000/svg">
<path d="M582.967 208.4C582.964 208.261 582.953 208.124 582.942 207.986C582.932 207.853 582.923 207.719 582.904 207.587C582.886 207.454 582.859 207.323 582.833 207.192C582.807 207.059 582.782 206.925 582.748 206.794C582.715 206.667 582.673 206.542 582.632 206.416C582.59 206.285 582.55 206.154 582.5 206.027C582.453 205.905 582.396 205.786 582.342 205.667C582.285 205.541 582.229 205.415 582.165 205.293C582.103 205.177 582.033 205.066 581.965 204.954C581.893 204.834 581.822 204.714 581.743 204.6C581.723 204.572 581.708 204.541 581.689 204.514L477.084 57.9653C476.221 56.757 474.992 55.8584 473.579 55.4027L302.606 0.32153C302.564 0.308163 302.522 0.301647 302.48 0.289074C302.352 0.250622 302.223 0.220593 302.094 0.189602C301.959 0.157482 301.825 0.124325 301.69 0.10046C301.559 0.0773738 301.428 0.0632289 301.297 0.0476954C301.161 0.0317194 301.026 0.0144465 300.89 0.00655772C300.756 -0.00125478 300.622 0.000133719 300.487 4.22187e-05C300.353 0.000133819 300.219 -0.00125478 300.085 0.00655772C299.949 0.0144465 299.814 0.0317194 299.678 0.0476954C299.546 0.0632288 299.416 0.0772823 299.285 0.100369C299.149 0.124417 299.014 0.157666 298.879 0.190029C298.751 0.220761 298.623 0.250531 298.496 0.288632C298.454 0.301388 298.41 0.307995 298.368 0.32153L127.395 55.4027C125.982 55.8584 124.753 56.757 123.89 57.9653L19.2856 204.514C19.2651 204.542 19.2498 204.573 19.2297 204.602C19.153 204.714 19.0849 204.83 19.0148 204.945C18.944 205.061 18.8714 205.176 18.8082 205.296C18.7457 205.414 18.6926 205.535 18.6374 205.656C18.5805 205.78 18.5218 205.904 18.4725 206.031C18.4249 206.153 18.3868 206.278 18.3465 206.403C18.3038 206.535 18.26 206.665 18.2253 206.798C18.1927 206.925 18.1691 207.053 18.1437 207.181C18.1167 207.318 18.0882 207.453 18.0694 207.591C18.0521 207.719 18.043 207.847 18.033 207.976C18.0215 208.119 18.0097 208.261 18.0073 208.404C18.0066 208.446 18 208.486 18 208.528V393.482C18 394.939 18.4607 396.36 19.3165 397.539L121.226 538.023C121.242 538.046 121.262 538.065 121.279 538.088C121.361 538.199 121.452 538.302 121.541 538.408C121.627 538.51 121.71 538.614 121.801 538.71C121.893 538.808 121.993 538.897 122.09 538.988C122.189 539.081 122.285 539.177 122.389 539.263C122.491 539.348 122.598 539.424 122.704 539.503C122.814 539.585 122.922 539.668 123.036 539.742C123.146 539.815 123.262 539.878 123.376 539.944C123.495 540.013 123.613 540.083 123.736 540.144C123.852 540.202 123.973 540.252 124.093 540.303C124.222 540.359 124.351 540.415 124.484 540.463C124.52 540.476 124.555 540.495 124.592 540.507L298.26 599.632C298.982 599.877 299.734 600 300.487 600C301.24 600 301.992 599.877 302.714 599.632L476.382 540.507C476.419 540.495 476.453 540.476 476.491 540.463C476.623 540.415 476.752 540.359 476.881 540.303C477.001 540.252 477.122 540.202 477.238 540.144C477.361 540.083 477.479 540.013 477.598 539.944C477.713 539.878 477.828 539.815 477.938 539.742C478.053 539.668 478.16 539.585 478.27 539.503C478.376 539.424 478.484 539.348 478.585 539.263C478.689 539.177 478.785 539.081 478.884 538.988C478.982 538.897 479.081 538.808 479.173 538.71C479.264 538.614 479.347 538.51 479.433 538.408C479.522 538.302 479.613 538.199 479.695 538.088C479.712 538.065 479.732 538.046 479.748 538.023L581.658 397.539C582.514 396.36 582.974 394.939 582.974 393.482L582.975 208.528C582.975 208.485 582.968 208.443 582.967 208.4ZM194.739 444.388L182.7 407.335L129.384 243.244L300.487 118.93L471.591 243.244L418.274 407.335L406.235 444.388H194.739ZM467.164 67.8552L565.005 204.927L480.901 232.926L307.397 106.868V16.3845L467.164 67.8552ZM133.81 67.8552L293.577 16.3845V106.868L176.977 191.583L120.073 232.926L35.9692 204.927L133.81 67.8552ZM31.8194 218.111L35.3773 219.295L115.767 246.058L182.03 449.993L126.951 522.381L31.8194 391.239V218.111ZM300.487 585.791L138.126 530.517L193.144 458.208H407.83L462.848 530.517L300.487 585.791ZM569.155 391.239L474.023 522.381L418.944 449.993L485.207 246.058L569.155 218.111L569.155 391.239Z" fill="white"/>
</svg>
