<svg width="71" height="80" viewBox="0 0 71 80" fill="none" xmlns="http://www.w3.org/2000/svg">
<path d="M67.2992 16.7808L39.6942 0.946696C38.5967 0.318358 37.3652 0 36.142 0C34.9607 0 33.7711 0.293224 32.6987 0.879673L3.71138 16.7976C2.47984 17.4762 1.51639 18.4815 0.871295 19.6712H0.837784L0.846162 19.7131C0.301602 20.7268 0 21.8745 0 23.0642V56.9358C0 59.5413 1.42423 61.9457 3.70301 63.2024L32.6903 79.1203C33.7627 79.7068 34.944 80 36.1336 80C37.3652 80 38.5883 79.6816 39.6858 79.0533L67.2908 63.2192C69.5109 61.9458 70.8849 59.5832 70.8849 57.0196V22.9804C70.8849 20.4168 69.5193 18.0542 67.2992 16.7808ZM37.2311 2.22851C37.7254 2.33742 38.203 2.51335 38.647 2.76469L66.252 18.5988C67.0897 19.0763 67.7516 19.7885 68.1956 20.6179L36.6531 22.3437L36.5023 22.1175L37.2311 2.22851ZM67.0562 22.7793L56.6174 53.0904L37.9684 24.3711L67.0562 22.7793ZM35.2791 24.4968C35.3377 24.5052 35.388 24.5052 35.4466 24.5052C35.4802 24.5052 35.522 24.5052 35.5556 24.5052L55.6875 55.5116L14.2256 55.0424L35.2791 24.4968ZM13.3543 52.6128L3.77003 22.0086L32.8663 24.3041L13.3543 52.6128ZM4.71672 18.6407L33.7041 2.7228C34.1565 2.47146 34.634 2.30391 35.1367 2.20337L34.4078 22.0672L34.2402 22.3186L3.2506 19.8722C3.65274 19.3779 4.14703 18.9591 4.71672 18.6407ZM2.10284 56.9442V23.6925L11.8463 54.7995L11.5782 55.1932L2.33742 58.4438C2.18662 57.9663 2.10284 57.4636 2.10284 56.9442ZM4.71672 61.3677C4.20568 61.0828 3.76165 60.7142 3.38465 60.2953L12.4076 57.1201L13.2873 57.1285L32.816 76.808L4.71672 61.3677ZM16.2781 57.162L53.8946 57.5893L36.142 77.1767L16.2781 57.162ZM66.252 61.4096L39.1832 76.9337L56.6845 57.6144L57.4385 57.6228L66.9222 60.932C66.7211 61.108 66.4949 61.2755 66.252 61.4096ZM68.7904 57.028C68.7904 57.7903 68.6061 58.5276 68.2878 59.1894L58.3181 55.7043L58.0668 55.3189L68.7904 24.1617V57.028Z" fill="white"/>
</svg>
