<svg width="600" height="600" viewBox="0 0 600 600" fill="none" xmlns="http://www.w3.org/2000/svg">
<path d="M560.438 152.85C560.429 152.753 560.431 152.658 560.419 152.561C560.369 152.185 560.279 151.819 560.169 151.46C560.133 151.339 560.09 151.22 560.047 151.1C559.918 150.749 559.77 150.407 559.588 150.081C559.573 150.055 559.566 150.027 559.551 150C559.537 149.976 559.518 149.958 559.504 149.934C559.311 149.609 559.086 149.306 558.842 149.015C558.763 148.921 558.684 148.829 558.601 148.739C558.341 148.461 558.065 148.196 557.759 147.961C557.697 147.913 557.629 147.876 557.565 147.831C557.382 147.7 557.199 147.568 557.001 147.453L303.219 0.93227C301.066 -0.310757 298.414 -0.310757 296.261 0.93227L42.4789 147.453C42.2811 147.568 42.0981 147.7 41.9146 147.831C41.8509 147.876 41.7831 147.913 41.7208 147.961C41.4146 148.196 41.1389 148.461 40.8788 148.739C40.7956 148.829 40.7169 148.921 40.6378 149.015C40.3942 149.306 40.1687 149.609 39.9761 149.934C39.962 149.958 39.9424 149.976 39.9285 150C39.9133 150.027 39.9068 150.055 39.892 150.081C39.7098 150.407 39.5613 150.749 39.4331 151.1C39.3892 151.22 39.3471 151.339 39.3102 151.46C39.2012 151.819 39.1109 152.185 39.0609 152.561C39.0482 152.658 39.0504 152.753 39.0418 152.85C39.0228 153.058 39 153.267 39 153.479V446.521C39 449.007 40.3262 451.304 42.4789 452.547L296.261 599.068C296.471 599.189 296.69 599.289 296.909 599.387C296.963 599.411 297.012 599.441 297.066 599.464C297.434 599.617 297.813 599.727 298.196 599.815C298.298 599.838 298.401 599.857 298.504 599.875C298.913 599.949 299.326 600 299.74 600C300.154 600 300.566 599.949 300.975 599.875C301.079 599.857 301.181 599.838 301.283 599.815C301.667 599.727 302.046 599.617 302.414 599.464C302.468 599.441 302.517 599.411 302.57 599.387C302.79 599.289 303.008 599.189 303.219 599.068L557.001 452.547C559.153 451.304 560.48 449.007 560.48 446.521V153.479C560.48 153.267 560.457 153.058 560.438 152.85ZM299.74 14.992L539.609 153.48L299.74 291.966L59.8711 153.48L299.74 14.992ZM52.9155 165.532L292.782 304.017V580.991L52.9155 442.504V165.532ZM306.698 580.991V304.017L546.564 165.532V442.504L306.698 580.991Z" fill="white"/>
</svg>
