<svg width="600" height="600" viewBox="0 0 600 600" fill="none" xmlns="http://www.w3.org/2000/svg">
<path d="M560.066 448.819C560.122 448.658 560.184 448.5 560.229 448.335C560.271 448.177 560.294 448.016 560.325 447.855C560.351 447.721 560.387 447.589 560.405 447.452C560.442 447.17 560.459 446.886 560.461 446.603C560.461 446.585 560.465 446.567 560.465 446.549V153.451C560.465 150.985 559.149 148.707 557.014 147.474L303.183 0.924515C303.17 0.917068 303.156 0.912216 303.143 0.904846C302.894 0.763016 302.636 0.634979 302.371 0.52507C302.261 0.479553 302.146 0.449814 302.035 0.410294C301.863 0.349258 301.693 0.282944 301.516 0.235535C301.381 0.199387 301.243 0.180923 301.106 0.153091C300.948 0.120926 300.793 0.0808716 300.632 0.0597229C300.408 0.0303345 300.183 0.0224457 299.958 0.0149994C299.882 0.0124816 299.809 0 299.732 0C299.656 0 299.582 0.0124817 299.507 0.0149994C299.282 0.0224457 299.056 0.0303345 298.833 0.0597229C298.672 0.0808716 298.517 0.120926 298.359 0.153091C298.222 0.180923 298.084 0.199387 297.949 0.235535C297.772 0.282944 297.602 0.349258 297.43 0.410294C297.318 0.449814 297.204 0.479553 297.094 0.52507C296.828 0.634979 296.571 0.763016 296.322 0.904846C296.309 0.912216 296.295 0.917068 296.282 0.924515L42.4507 147.474C40.3154 148.707 39 150.985 39 153.451V446.549C39 446.851 39.0206 447.152 39.0598 447.452C39.0775 447.585 39.1122 447.714 39.1375 447.846C39.1689 448.009 39.1926 448.174 39.236 448.336C39.2793 448.497 39.341 448.653 39.396 448.81C39.4398 448.936 39.474 449.065 39.5252 449.189C39.6378 449.46 39.7679 449.724 39.9139 449.978C39.9178 449.985 39.9205 449.993 39.9246 450C39.927 450.005 39.9305 450.008 39.9329 450.013C40.0817 450.269 40.2469 450.516 40.4277 450.752C40.5092 450.858 40.6028 450.951 40.6901 451.052C40.7995 451.179 40.9031 451.31 41.0219 451.429C41.1389 451.546 41.2683 451.648 41.3927 451.755C41.4956 451.844 41.5911 451.94 41.6996 452.023C41.916 452.189 42.1438 452.338 42.3779 452.477C42.4032 452.492 42.4252 452.511 42.4507 452.526L296.282 599.076C297.349 599.692 298.541 600 299.732 600C300.924 600 302.115 599.692 303.183 599.076L557.014 452.526C557.048 452.506 557.077 452.481 557.111 452.461C557.336 452.326 557.556 452.184 557.765 452.024C557.877 451.937 557.976 451.838 558.083 451.746C558.203 451.641 558.329 451.543 558.442 451.429C558.565 451.306 558.673 451.171 558.786 451.039C558.869 450.943 558.959 450.853 559.037 450.752C559.218 450.516 559.383 450.269 559.532 450.012C559.534 450.008 559.538 450.004 559.54 450C559.544 449.993 559.547 449.985 559.551 449.978C559.697 449.724 559.827 449.46 559.939 449.189C559.99 449.067 560.023 448.942 560.066 448.819ZM546.662 420.794L318.587 25.7563L546.662 157.435V420.794ZM541.61 439.648H57.8545L299.732 20.7037L541.61 439.648ZM280.877 25.7563L52.8025 420.793V157.435L280.877 25.7563ZM299.732 585.13L71.6566 453.451H527.808L299.732 585.13Z" fill="white"/>
</svg>
